<?xml version="1.0" encoding="utf-8"?>
<!-- Generator: Adobe Illustrator 25.1.0, SVG Export Plug-In . SVG Version: 6.00 Build 0)  -->
<svg version="1.1" id="Layer_1" xmlns="http://www.w3.org/2000/svg" xmlns:xlink="http://www.w3.org/1999/xlink" x="0px" y="0px"
	 viewBox="0 0 100 100" style="enable-background:new 0 0 100 100;" xml:space="preserve">
<style type="text/css">
	.st0{fill:#F7931E;stroke:#F7931E;stroke-width:2;stroke-miterlimit:10;}
	.st1{fill:#383838;stroke:#383838;stroke-miterlimit:10;}
	.st2{fill:#383838;stroke:#383838;stroke-width:2;stroke-miterlimit:10;}
	.st3{fill:#F7931E;}
</style>
<g>
	<path class="st0" d="M24.93,49.78c0,0.69-0.07,1.28-0.21,1.76c-0.14,0.48-0.35,0.87-0.64,1.18c-0.28,0.3-0.63,0.52-1.05,0.66
		c-0.42,0.14-0.91,0.2-1.48,0.2c-0.49,0-0.94-0.07-1.34-0.21s-0.74-0.35-1.02-0.61c-0.28-0.27-0.5-0.59-0.65-0.96
		c-0.15-0.37-0.22-0.8-0.22-1.26l0.94-0.01c0.04,0.76,0.25,1.32,0.63,1.68s0.94,0.54,1.67,0.54c0.38,0,0.72-0.04,1.02-0.11
		s0.56-0.22,0.77-0.42c0.21-0.21,0.37-0.5,0.48-0.87s0.17-0.86,0.17-1.46v-8h0.94V49.78z"/>
	<path class="st1" d="M34.27,52.27c-0.23,0.25-0.48,0.45-0.77,0.61c-0.29,0.17-0.58,0.3-0.87,0.4c-0.29,0.1-0.59,0.17-0.87,0.22
		c-0.29,0.05-0.54,0.07-0.77,0.07c-1.87,0-2.8-0.99-2.8-2.97v-5.37h0.94v5.3c0,0.76,0.16,1.32,0.48,1.67
		c0.32,0.35,0.87,0.53,1.65,0.53c0.57,0,1.1-0.14,1.6-0.42c0.5-0.28,0.97-0.68,1.42-1.2v-5.89h0.94v8.13h-0.94V52.27z"/>
	<path class="st1" d="M44.68,46.23l-6.33,6.3h6.62v0.84h-7.61v-1l6.22-6.3h-5.88v-0.84h6.97V46.23z"/>
	<path class="st2" d="M56.73,44.95c-0.09-0.34-0.25-0.66-0.48-0.96c-0.24-0.3-0.53-0.56-0.88-0.78s-0.76-0.39-1.22-0.52
		s-0.95-0.19-1.48-0.19c-0.75,0-1.42,0.11-2.03,0.33c-0.61,0.22-1.13,0.54-1.55,0.96s-0.76,0.95-0.99,1.58
		c-0.23,0.63-0.35,1.37-0.35,2.21s0.12,1.58,0.35,2.22s0.56,1.18,0.99,1.61c0.43,0.43,0.94,0.76,1.54,0.99
		c0.6,0.22,1.27,0.34,2.01,0.34c1.12,0,2.03-0.22,2.76-0.67s1.17-1.09,1.34-1.95h0.98c-0.09,0.55-0.29,1.03-0.58,1.46
		s-0.66,0.79-1.09,1.09c-0.44,0.29-0.95,0.52-1.52,0.67c-0.57,0.15-1.19,0.23-1.86,0.23c-0.91,0-1.73-0.14-2.46-0.42
		s-1.34-0.68-1.85-1.2c-0.51-0.52-0.9-1.15-1.18-1.88c-0.28-0.74-0.41-1.57-0.41-2.48c0-0.91,0.14-1.73,0.41-2.46
		c0.27-0.73,0.67-1.35,1.18-1.86c0.51-0.51,1.13-0.91,1.86-1.19s1.54-0.41,2.44-0.41c0.62,0,1.21,0.08,1.77,0.24
		c0.56,0.16,1.07,0.39,1.51,0.68c0.45,0.29,0.82,0.64,1.13,1.04c0.31,0.4,0.52,0.84,0.64,1.33H56.73z"/>
	<path class="st1" d="M66.39,52.32c-0.32,0.25-0.64,0.46-0.94,0.62c-0.31,0.16-0.61,0.29-0.9,0.39c-0.29,0.09-0.59,0.16-0.88,0.19
		c-0.29,0.04-0.58,0.05-0.88,0.05c-0.4,0-0.77-0.05-1.12-0.16s-0.64-0.26-0.89-0.46c-0.25-0.2-0.45-0.44-0.6-0.72
		c-0.14-0.28-0.22-0.6-0.22-0.94c0-0.93,0.45-1.65,1.34-2.17c0.89-0.52,2.23-0.78,4.01-0.78h1.08c0-0.36-0.02-0.69-0.07-0.99
		c-0.05-0.3-0.16-0.56-0.33-0.78c-0.17-0.22-0.43-0.39-0.77-0.52s-0.8-0.19-1.38-0.19c-0.86,0-1.5,0.12-1.93,0.36
		s-0.68,0.6-0.76,1.08h-0.93c0.09-0.77,0.43-1.34,1.01-1.72c0.58-0.37,1.44-0.56,2.59-0.56c0.64,0,1.18,0.07,1.62,0.21
		c0.44,0.14,0.8,0.34,1.08,0.6c0.28,0.26,0.48,0.58,0.61,0.96c0.13,0.37,0.19,0.8,0.19,1.26v5.31h-0.94V52.32z M66.39,49.18h-1.42
		c-1.37,0-2.38,0.17-3.06,0.52c-0.67,0.35-1.01,0.85-1.01,1.5c0,0.48,0.21,0.86,0.64,1.13c0.42,0.27,1,0.4,1.74,0.4
		c0.32,0,0.63-0.04,0.94-0.13c0.3-0.09,0.59-0.2,0.85-0.34c0.27-0.14,0.51-0.29,0.74-0.47s0.42-0.34,0.58-0.5V49.18z"/>
	<path class="st1" d="M74.62,45.88c-0.09-0.01-0.18-0.02-0.28-0.02c-0.09,0-0.21,0-0.34,0c-0.27,0-0.53,0.05-0.78,0.15
		c-0.25,0.1-0.49,0.23-0.72,0.38c-0.23,0.16-0.44,0.34-0.64,0.54s-0.37,0.4-0.51,0.61v5.82h-0.94v-8.13h0.94v1.12
		c0.27-0.28,0.53-0.51,0.79-0.68c0.26-0.17,0.52-0.31,0.77-0.41c0.25-0.1,0.49-0.16,0.71-0.19c0.23-0.03,0.44-0.05,0.62-0.05
		c0.06,0,0.12,0,0.18,0.01s0.12,0.01,0.19,0.02V45.88z"/>
	<path class="st1" d="M80.09,53.57c-0.64,0-1.21-0.1-1.73-0.29c-0.52-0.19-0.96-0.47-1.34-0.84s-0.66-0.82-0.87-1.35
		c-0.2-0.53-0.31-1.14-0.31-1.81c0-0.66,0.1-1.25,0.29-1.78c0.2-0.53,0.48-0.98,0.84-1.34c0.36-0.37,0.79-0.65,1.28-0.84
		c0.5-0.2,1.04-0.29,1.65-0.29c0.62,0,1.18,0.1,1.68,0.29c0.5,0.2,0.93,0.48,1.28,0.84c0.35,0.37,0.63,0.82,0.81,1.34
		c0.19,0.53,0.28,1.12,0.28,1.79v0.19h-7.18c0.05,0.55,0.16,1.03,0.34,1.44s0.42,0.74,0.71,1.01c0.29,0.27,0.63,0.47,1.01,0.6
		c0.38,0.13,0.79,0.2,1.24,0.2c0.31,0,0.63-0.03,0.94-0.1c0.31-0.07,0.6-0.17,0.85-0.3c0.26-0.13,0.47-0.3,0.64-0.49
		c0.17-0.2,0.27-0.42,0.31-0.67h0.93c-0.09,0.38-0.24,0.73-0.46,1.02c-0.22,0.3-0.49,0.55-0.81,0.76c-0.32,0.21-0.69,0.36-1.1,0.47
		S80.55,53.57,80.09,53.57z M83.02,48.64c-0.16-0.93-0.51-1.63-1.07-2.09c-0.55-0.46-1.24-0.69-2.04-0.69
		c-0.4,0-0.77,0.06-1.12,0.17c-0.35,0.11-0.65,0.28-0.92,0.51s-0.5,0.52-0.68,0.87c-0.18,0.35-0.32,0.76-0.39,1.23H83.02z"/>
</g>
<path class="st3" d="M25.76,36.02c0.02,0.64,0.03,1.29,0.04,1.94c0.01,0.8,0.02,1.59,0.02,2.37c-0.27-0.01-0.68-0.02-1.19-0.03
	c-1.04-0.01-1.18,0.02-1.36-0.11c-0.17-0.12-0.29-0.33-0.3-2.02c-0.01-1.49,0.09-1.77,0.31-1.96c0.23-0.2,0.51-0.23,1-0.28
	C24.92,35.86,25.44,35.94,25.76,36.02z"/>
<g>
	<g>
		<g>
			<path class="st3" d="M38.76,42.22c-1.3-0.83-2.7-1.5-4.17-1.98c-1.77-0.58-3.64-0.88-5.5-0.9c-0.75-0.01-1.5,0.04-2.25,0.13
				c0.13,0.13,0.25,0.25,0.38,0.38c-0.01-1.18-0.03-2.35-0.04-3.53c-0.13,0.13-0.25,0.25-0.38,0.38c3.31-0.22,6.56-1.08,9.55-2.52
				c0.72-0.35,1.42-0.73,2.1-1.14c-0.19-0.11-0.38-0.22-0.56-0.32c0.08,2.56,0.16,5.11,0.24,7.67c0.02,0.73,0.04,1.45,0.07,2.18
				c0.01,0.48,0.76,0.48,0.75,0c-0.08-2.56-0.16-5.11-0.24-7.67c-0.02-0.73-0.04-1.45-0.07-2.18c-0.01-0.28-0.31-0.48-0.56-0.32
				c-2.76,1.67-5.83,2.79-9.01,3.31c-0.75,0.12-1.5,0.2-2.26,0.26c-0.2,0.01-0.38,0.16-0.38,0.38c0.01,1.18,0.03,2.35,0.04,3.53
				c0,0.18,0.17,0.4,0.38,0.38c3.24-0.38,6.57,0.13,9.52,1.53c0.7,0.33,1.37,0.71,2.02,1.12c0.17,0.11,0.41,0.03,0.51-0.13
				C39,42.55,38.93,42.33,38.76,42.22z"/>
		</g>
	</g>
	<g>
		<g>
			<g>
				<path class="st3" d="M40.4,35.29c0.49-0.28,0.97-0.56,1.46-0.85c0.07-0.04,0.14-0.08,0.21-0.12c0.17-0.1,0.24-0.34,0.13-0.51
					c-0.11-0.17-0.33-0.24-0.51-0.13c-0.49,0.28-0.97,0.56-1.46,0.85c-0.07,0.04-0.14,0.08-0.21,0.12c-0.17,0.1-0.24,0.34-0.13,0.51
					C40,35.32,40.22,35.39,40.4,35.29L40.4,35.29z"/>
			</g>
		</g>
		<g>
			<g>
				<path class="st3" d="M40.3,38.03c0.58-0.01,1.16-0.01,1.74-0.02c0.08,0,0.17,0,0.25,0c0.2,0,0.38-0.17,0.38-0.38
					c-0.01-0.2-0.16-0.38-0.38-0.38c-0.58,0.01-1.16,0.01-1.74,0.02c-0.08,0-0.17,0-0.25,0c-0.2,0-0.38,0.17-0.38,0.38
					C39.94,37.86,40.09,38.04,40.3,38.03L40.3,38.03z"/>
			</g>
		</g>
		<g>
			<g>
				<path class="st3" d="M40.3,40.78c0.54,0.24,1.08,0.48,1.62,0.71c0.08,0.03,0.15,0.07,0.23,0.1c0.18,0.08,0.41,0.06,0.51-0.13
					c0.09-0.16,0.06-0.43-0.13-0.51c-0.54-0.24-1.08-0.48-1.62-0.71c-0.08-0.03-0.15-0.07-0.23-0.1c-0.18-0.08-0.41-0.06-0.51,0.13
					C40.08,40.43,40.11,40.7,40.3,40.78L40.3,40.78z"/>
			</g>
		</g>
	</g>
	<g>
		<g>
			<path class="st3" d="M33.09,35.3c0.02,0.03,0.04,0.07,0.05,0.1c0.01,0.02,0.01,0.03,0.02,0.05c-0.01-0.03-0.01-0.03,0,0.01
				c0.03,0.08,0.06,0.15,0.08,0.23c0.06,0.19,0.1,0.39,0.14,0.59c0.09,0.47,0.12,0.94,0.12,1.41c0,0.46-0.02,0.93-0.1,1.39
				c-0.03,0.19-0.08,0.38-0.14,0.56c-0.01,0.04-0.02,0.07-0.04,0.11c0,0-0.05,0.11-0.02,0.04c-0.03,0.07-0.06,0.13-0.1,0.19
				c-0.11,0.17-0.04,0.41,0.13,0.51c0.18,0.11,0.4,0.04,0.51-0.13c0.2-0.32,0.3-0.71,0.37-1.08c0.09-0.52,0.13-1.06,0.13-1.59
				c0-0.54-0.05-1.08-0.15-1.61c-0.07-0.4-0.18-0.81-0.38-1.16C33.51,34.5,32.86,34.88,33.09,35.3L33.09,35.3z"/>
		</g>
	</g>
</g>
<g>
</g>
<g>
</g>
<g>
</g>
<g>
</g>
<g>
</g>
</svg>
